# xmcd CD database file
#
# Track frame offsets:
#	150
#	11086
#	24107
#	37925
#	50240
#	63680
#	74210
#	88977
#	97229
#	111265
#	125992
#	139425
#	150365
#	159157
#	173599
#	184499
#	198304
#	203326
#	213496
#	225256
#	239148
#	243635
#	258736
#	263809
#	276853
#
# Disc length: 3906 seconds
#
# Revision: 3
# Processed by: cddbd v1.5.1PL0 Copyright (c) Steve Scherf et al.
# Submitted via: CDex 1.50
#
DISCID=7f0f4019
DTITLE=Leadbelly - The Definitive Leadbelly [CDThree)
DYEAR=2002
DGENRE=Folk
TTITLE0=It Was Early One Morning
TTITLE1=Good Morning Blues
TTITLE2=Tom Hughes Town
TTITLE3=Bull Cow
TTITLE4=Looky Looky Yonder
TTITLE5=The Blood Done Sign My Name
TTITLE6=Tell Me Baby, What Was Wrong With You
TTITLE7=Birmingham Jail (Down In The Valley)
TTITLE8=Red Cross Store Blues
TTITLE9=Sail On, Little Girl, Sail On
TTITLE10=Roberta
TTITLE11=Jim Crow Blues
TTITLE12=Gray Goose
TTITLE13=I'm On My Last Go-Round
TTITLE14=Stewball
TTITLE15=Spring Time In The Rockies
TTITLE16=Ain't Going Down To The Well No More
TTITLE17=Take This Hammer
TTITLE18=Rock Island Line
TTITLE19=Midnight Special
TTITLE20=Sylvie
TTITLE21=I'll Be Down On The Last Bread Wagon
TTITLE22=Chinatown
TTITLE23=I'm Alone Because I Love You
TTITLE24=Leaving Blues
EXTD=YEAR: 2002
EXTT0=
EXTT1=
EXTT2=
EXTT3=
EXTT4=
EXTT5=
EXTT6=
EXTT7=
EXTT8=
EXTT9=
EXTT10=
EXTT11=
EXTT12=
EXTT13=
EXTT14=
EXTT15=
EXTT16=
EXTT17=
EXTT18=
EXTT19=
EXTT20=
EXTT21=
EXTT22=
EXTT23=
EXTT24=
PLAYORDER=
